<?xml version="1.0" encoding="UTF-8"?>
<!DOCTYPE svg PUBLIC "-//W3C//DTD SVG 1.1//EN" "http://www.w3.org/Graphics/SVG/1.1/DTD/svg11.dtd">
<!-- Creator: CorelDRAW -->
<svg xmlns="http://www.w3.org/2000/svg" xml:space="preserve" width="51.6904mm" height="13.737mm" version="1.1" style="shape-rendering:geometricPrecision; text-rendering:geometricPrecision; image-rendering:optimizeQuality; fill-rule:evenodd; clip-rule:evenodd"
viewBox="0 0 5169.04 1373.7"
 xmlns:xlink="http://www.w3.org/1999/xlink"
 xmlns:xodm="http://www.corel.com/coreldraw/odm/2003">
 <defs>
  <style type="text/css">
   <![CDATA[
    .fil3 {fill:#2490EB}
    .fil0 {fill:#FEFEFE}
    .fil2 {fill:#02C9B8;fill-rule:nonzero}
    .fil1 {fill:#2490EB;fill-rule:nonzero}
   ]]>
  </style>
 </defs>
 <g id="Layer_x0020_1">
  <metadata id="CorelCorpID_0Corel-Layer"/>
  <g id="_2224136684848">
   <g>
    <circle class="fil0" cx="686.85" cy="686.85" r="686.85"/>
    <path class="fil1" d="M1116.75 539.61l-248.82 0 0 -296.43c0,-46.81 -37.95,-84.75 -84.75,-84.75l-263.2 0c-46.81,0 -84.75,37.94 -84.75,84.75 0,18.5 3.3,36.84 9.73,54.18 19.92,53.72 73.02,168.67 182.73,242.25 11.2,7.52 22.99,14.62 35.41,21.16 7.05,3.72 14.34,6.94 21.8,9.79 27.52,10.54 111.23,44.37 183.02,91.76 54.84,36.2 102.73,80.3 113.32,127.99 0,0 -54.88,-37.2 -113.32,-60.3 -38.71,-15.3 -78.98,-24.42 -105.91,-12.43 -16.2,7.21 -24.44,25.46 -19.83,42.59 10.1,37.66 35.15,128.4 63.53,212.14 20.45,60.37 42.64,117.09 62.21,147.67l0 -147.67 264.44 0c64.48,0 116.74,-52.26 116.74,-116.74l0 -183.59c0.01,-73.1 -59.26,-132.37 -132.36,-132.37l0.01 0zm-430.84 10.3c-14.19,0 -27.48,-3.75 -38.99,-10.3 -23.88,-13.58 -40,-39.24 -40,-68.68 0,-43.62 35.37,-78.98 78.99,-78.98 43.62,0 78.98,35.36 78.98,78.98 0,29.44 -16.11,55.1 -39.99,68.68 -11.51,6.55 -24.81,10.3 -38.99,10.3z"/>
    <path class="fil2" d="M769.81 1053.15c-6.47,-9.92 -13.21,-19.64 -20.67,-28.84 -11.56,-14.26 -28.35,-33.98 -46.35,-52.01 -16.91,-16.94 -34.91,-32.39 -50.71,-40.41 -14.48,-7.33 -32.12,-1.95 -39.99,12.26 -3.81,6.88 -7.92,16.14 -11.37,28.15 -2.61,9.12 -4.84,19.83 -6.26,32.31 -1.67,14.8 -3.85,29.53 -6.96,44.11 -6.55,30.76 -18.16,79.67 -31.51,111.03 -1.87,4.39 -8.35,3.32 -8.69,-1.44 -2.37,-32.66 -7.44,-108.83 -9.47,-186.01 -1.31,-49.72 -1.36,-99.85 1.4,-139.04 1.39,-19.7 1.25,-39.45 -0.48,-59.12l-8.38 -95.63c-3.65,-41.5 -15.41,-81.83 -34.51,-118.85 -3.25,-6.32 -6.65,-13.05 -10.08,-20.06 -22.43,-45.77 -46.95,-104.31 -50.56,-147.67l0 147.67 -290.55 0c-0.89,14.25 -1.35,28.56 -1.35,42.93 0,144.83 45.44,279.23 122.76,389.77l169.14 0 0 169.14c110.54,77.32 244.94,122.76 389.77,122.76 14.29,0 28.62,-0.48 42.93,-1.37l0 -104.6c0,0 -75.03,-69.66 -98.1,-105.08l-0.01 0z"/>
    <path class="fil1" d="M867.92 1307.59c-14.2,0.83 -28.52,1.27 -42.93,1.27 -143.44,0 -277.14,-41.6 -389.77,-113.36 -89.71,-57.17 -166.02,-133.48 -223.18,-223.18 -71.77,-112.62 -113.37,-246.33 -113.37,-389.77 0,-14.42 0.47,-28.72 1.3,-42.93 4.27,-73.08 19.31,-143.27 43.61,-208.98 -31.43,64.87 -52.98,135.45 -62.83,209.75 -3.99,30.09 -6.11,60.77 -6.11,91.96 0,123.61 32.36,239.61 88.99,339.97 63.65,112.8 157.96,205.82 271.59,267.58 97.05,52.75 208.16,82.7 326.24,82.7 36.21,0 71.76,-2.85 106.46,-8.28 22.16,-3.46 43.98,-7.96 65.38,-13.5 -21.5,3.22 -43.31,5.48 -65.38,6.78l0 -0.01z"/>
   </g>
   <rect class="fil3" x="1535.32" y="768.35" width="3633.55" height="39.87"/>
   <polygon class="fil1" points="1646.25,858.46 1646.25,877.84 1605.93,877.84 1605.93,1009.94 1581.07,1009.94 1581.07,877.84 1540.54,877.84 1540.54,858.46 "/>
   <path id="_1_18" class="fil1" d="M1733.45 887.87c9.15,0 17.33,1.96 24.52,5.88 7.19,3.93 12.86,9.74 17,17.44 4.14,7.7 6.21,17 6.21,27.9l0 70.84 -24.63 0 0 -67.12c0,-10.76 -2.68,-19 -8.06,-24.74 -5.38,-5.74 -12.72,-8.6 -22.02,-8.6 -9.3,0 -16.67,2.86 -22.12,8.6 -5.45,5.74 -8.17,13.98 -8.17,24.74l0 67.12 -24.85 0 0 -161.3 24.85 0 0 55.15c4.21,-5.09 9.55,-9.01 16.02,-11.77 6.46,-2.76 13.55,-4.14 21.25,-4.14z"/>
   <path id="_2_19" class="fil1" d="M1922.86 946.5c0,4.21 -0.29,8.14 -0.87,11.77l-91.98 0c0.72,10.03 4.28,17.98 10.68,23.87 6.39,5.88 14.31,8.83 23.76,8.83 13.37,0 22.81,-5.6 28.33,-16.79l26.81 0c-3.63,11.05 -10.21,20.09 -19.72,27.14 -9.52,7.05 -21.33,10.57 -35.42,10.57 -11.48,0 -21.76,-2.58 -30.85,-7.74 -9.08,-5.15 -16.2,-12.42 -21.36,-21.79 -5.17,-9.38 -7.74,-20.24 -7.74,-32.59 0,-12.35 2.51,-23.21 7.52,-32.59 5.02,-9.37 12.07,-16.6 21.15,-21.68 9.08,-5.09 19.51,-7.63 31.28,-7.63 11.33,0 21.43,2.47 30.29,7.41 8.87,4.94 15.77,11.84 20.71,20.7 4.94,8.87 7.41,19.04 7.41,30.52zm-25.94 -6.1c-0.14,-9.74 -3.37,-17.44 -9.7,-23.11 -6.32,-5.66 -14.27,-8.5 -23.86,-8.5 -8.72,0 -16.17,2.84 -22.35,8.5 -6.17,5.67 -9.77,13.37 -10.78,23.11l66.69 0z"/>
   <path id="_3_20" class="fil1" d="M2118.61 903.57c0,7.7 -1.82,14.97 -5.45,21.8 -3.63,6.83 -9.44,12.39 -17.44,16.67 -7.99,4.29 -18.23,6.43 -30.73,6.43l-27.46 0 0 61.47 -24.85 0 0 -151.49 52.31 0c11.63,0 21.47,2 29.54,6 8.06,3.99 14.09,9.4 18.09,16.23 3.99,6.83 5.99,14.46 5.99,22.89zm-53.62 25.51c9.45,0 16.49,-2.25 21.14,-6.75 4.65,-4.51 6.98,-10.76 6.98,-18.75 0,-8.14 -2.33,-14.46 -6.98,-18.96 -4.65,-4.51 -11.69,-6.76 -21.14,-6.76l-27.46 0 0 51.22 27.46 0z"/>
   <path id="_4_21" class="fil1" d="M2204.48 887.87c9.15,0 17.33,1.96 24.52,5.88 7.19,3.93 12.86,9.74 17,17.44 4.14,7.7 6.21,17 6.21,27.9l0 70.84 -24.63 0 0 -67.12c0,-10.76 -2.68,-19 -8.06,-24.74 -5.38,-5.74 -12.72,-8.6 -22.02,-8.6 -9.3,0 -16.67,2.86 -22.12,8.6 -5.45,5.74 -8.17,13.98 -8.17,24.74l0 67.12 -24.85 0 0 -161.3 24.85 0 0 55.15c4.21,-5.09 9.55,-9.01 16.02,-11.77 6.46,-2.76 13.55,-4.14 21.25,-4.14z"/>
   <path id="_5_22" class="fil1" d="M2275.52 949.34c0,-12.06 2.51,-22.74 7.52,-32.04 5.02,-9.3 11.85,-16.53 20.49,-21.69 8.65,-5.15 18.2,-7.73 28.67,-7.73 9.44,0 17.69,1.85 24.74,5.56 7.04,3.7 12.68,8.31 16.89,13.84l0 -17.44 25.07 0 0 120.1 -25.07 0 0 -17.87c-4.21,5.66 -9.95,10.39 -17.22,14.16 -7.27,3.78 -15.55,5.67 -24.85,5.67 -10.32,0 -19.76,-2.65 -28.33,-7.95 -8.58,-5.31 -15.37,-12.72 -20.39,-22.24 -5.01,-9.52 -7.52,-20.3 -7.52,-32.37zm98.31 0.44c0,-8.28 -1.71,-15.48 -5.12,-21.58 -3.42,-6.1 -7.89,-10.75 -13.41,-13.95 -5.52,-3.2 -11.48,-4.79 -17.87,-4.79 -6.4,0 -12.35,1.56 -17.88,4.68 -5.52,3.13 -9.99,7.7 -13.4,13.73 -3.42,6.03 -5.12,13.19 -5.12,21.47 0,8.29 1.7,15.55 5.12,21.8 3.41,6.25 7.92,11.01 13.51,14.28 5.6,3.27 11.52,4.9 17.77,4.9 6.39,0 12.35,-1.6 17.87,-4.79 5.52,-3.2 9.99,-7.89 13.41,-14.06 3.41,-6.18 5.12,-13.41 5.12,-21.69z"/>
   <path id="_6_23" class="fil1" d="M2456.45 910.76c3.63,-7.26 8.46,-12.89 14.49,-16.89 6.03,-4 13.19,-5.99 21.47,-5.99l0 25.72 -6.32 0c-9.74,0 -17.11,2.47 -22.12,7.41 -5.02,4.94 -7.52,13.51 -7.52,25.72l0 63.21 -24.85 0 0 -120.1 24.85 0 0 20.92z"/>
   <path id="_7_24" class="fil1" d="M2660.67 887.87c9.45,0 17.91,1.96 25.4,5.88 7.48,3.93 13.37,9.74 17.65,17.44 4.29,7.7 6.43,17 6.43,27.9l0 70.84 -24.63 0 0 -67.12c0,-10.76 -2.69,-19 -8.06,-24.74 -5.38,-5.74 -12.72,-8.6 -22.02,-8.6 -9.3,0 -16.67,2.86 -22.12,8.6 -5.45,5.74 -8.18,13.98 -8.18,24.74l0 67.12 -24.63 0 0 -67.12c0,-10.76 -2.68,-19 -8.06,-24.74 -5.38,-5.74 -12.72,-8.6 -22.02,-8.6 -9.3,0 -16.67,2.86 -22.12,8.6 -5.45,5.74 -8.17,13.98 -8.17,24.74l0 67.12 -24.85 0 0 -120.1 24.85 0 0 13.73c4.07,-4.94 9.22,-8.79 15.47,-11.55 6.25,-2.76 12.94,-4.14 20.06,-4.14 9.59,0 18.16,2.03 25.72,6.1 7.55,4.07 13.36,9.95 17.43,17.66 3.64,-7.27 9.3,-13.05 17.01,-17.33 7.7,-4.29 15.98,-6.43 24.84,-6.43z"/>
   <path id="_8_25" class="fil1" d="M2733.47 949.34c0,-12.06 2.51,-22.74 7.52,-32.04 5.02,-9.3 11.85,-16.53 20.49,-21.69 8.65,-5.15 18.2,-7.73 28.67,-7.73 9.44,0 17.69,1.85 24.74,5.56 7.04,3.7 12.68,8.31 16.89,13.84l0 -17.44 25.07 0 0 120.1 -25.07 0 0 -17.87c-4.21,5.66 -9.95,10.39 -17.22,14.16 -7.27,3.78 -15.55,5.67 -24.85,5.67 -10.32,0 -19.76,-2.65 -28.33,-7.95 -8.58,-5.31 -15.37,-12.72 -20.39,-22.24 -5.01,-9.52 -7.52,-20.3 -7.52,-32.37zm98.31 0.44c0,-8.28 -1.71,-15.48 -5.12,-21.58 -3.42,-6.1 -7.89,-10.75 -13.41,-13.95 -5.52,-3.2 -11.48,-4.79 -17.87,-4.79 -6.4,0 -12.35,1.56 -17.88,4.68 -5.52,3.13 -9.99,7.7 -13.4,13.73 -3.42,6.03 -5.12,13.19 -5.12,21.47 0,8.29 1.7,15.55 5.12,21.8 3.41,6.25 7.92,11.01 13.51,14.28 5.6,3.27 11.52,4.9 17.77,4.9 6.39,0 12.35,-1.6 17.87,-4.79 5.52,-3.2 9.99,-7.89 13.41,-14.06 3.41,-6.18 5.12,-13.41 5.12,-21.69z"/>
   <path id="_9_26" class="fil1" d="M2881.26 949.77c0,-12.35 2.51,-23.21 7.52,-32.59 5.02,-9.37 11.96,-16.6 20.82,-21.68 8.87,-5.09 19.04,-7.63 30.52,-7.63 14.53,0 26.55,3.45 36.07,10.35 9.52,6.9 15.95,16.75 19.29,29.54l-26.81 0c-2.18,-5.96 -5.67,-10.61 -10.46,-13.95 -4.8,-3.35 -10.83,-5.02 -18.09,-5.02 -10.18,0 -18.28,3.6 -24.31,10.79 -6.03,7.19 -9.04,17.26 -9.04,30.19 0,12.93 3.01,23.03 9.04,30.3 6.03,7.26 14.13,10.91 24.31,10.91 14.38,0 23.9,-6.32 28.55,-18.97l26.81 0c-3.49,12.21 -10.03,21.91 -19.62,29.1 -9.59,7.2 -21.5,10.79 -35.74,10.79 -11.48,0 -21.65,-2.58 -30.52,-7.74 -8.86,-5.15 -15.8,-12.42 -20.82,-21.79 -5.01,-9.38 -7.52,-20.24 -7.52,-32.59l0 -0.01z"/>
   <path id="_10" class="fil1" d="M3130.4 946.5c0,4.21 -0.29,8.14 -0.87,11.77l-91.98 0c0.72,10.03 4.28,17.98 10.68,23.87 6.39,5.88 14.31,8.83 23.76,8.83 13.37,0 22.81,-5.6 28.33,-16.79l26.81 0c-3.63,11.05 -10.21,20.09 -19.72,27.14 -9.52,7.05 -21.33,10.57 -35.42,10.57 -11.48,0 -21.76,-2.58 -30.85,-7.74 -9.08,-5.15 -16.2,-12.42 -21.36,-21.79 -5.17,-9.38 -7.74,-20.24 -7.74,-32.59 0,-12.35 2.51,-23.21 7.52,-32.59 5.02,-9.37 12.07,-16.6 21.15,-21.68 9.08,-5.09 19.51,-7.63 31.28,-7.63 11.33,0 21.43,2.47 30.29,7.41 8.87,4.94 15.77,11.84 20.71,20.7 4.94,8.87 7.41,19.04 7.41,30.52zm-25.94 -6.1c-0.14,-9.74 -3.37,-17.44 -9.7,-23.11 -6.32,-5.66 -14.27,-8.5 -23.86,-8.5 -8.72,0 -16.17,2.84 -22.35,8.5 -6.17,5.67 -9.77,13.37 -10.78,23.11l66.69 0z"/>
   <path id="_11" class="fil1" d="M3263.58 889.84l0 120.1 -24.84 0 0 -14.17c-3.93,4.94 -9.05,8.83 -15.37,11.66 -6.32,2.84 -13.04,4.25 -20.16,4.25 -9.45,0 -17.91,-1.96 -25.4,-5.88 -7.48,-3.92 -13.37,-9.74 -17.65,-17.44 -4.29,-7.7 -6.43,-17 -6.43,-27.9l0 -70.62 24.63 0 0 66.92c0,10.75 2.69,19 8.06,24.73 5.38,5.74 12.72,8.6 22.02,8.6 9.3,0 16.67,-2.86 22.12,-8.6 5.45,-5.73 8.18,-13.98 8.18,-24.73l0 -66.92 24.84 0z"/>
   <path id="_12" class="fil1" d="M3325.27 910.11l0 66.48c0,4.51 1.05,7.74 3.16,9.7 2.11,1.96 5.7,2.94 10.79,2.94l15.26 0 0 20.71 -19.62 0c-11.19,0 -19.76,-2.62 -25.72,-7.85 -5.96,-5.23 -8.94,-13.73 -8.94,-25.5l0 -66.48 -14.17 0 0 -20.27 14.17 0 0 -29.86 25.07 0 0 29.86 29.21 0 0 20.27 -29.21 0z"/>
   <path id="_13" class="fil1" d="M3390.01 873.92c-4.5,0 -8.28,-1.53 -11.33,-4.58 -3.06,-3.05 -4.58,-6.83 -4.58,-11.34 0,-4.5 1.52,-8.28 4.58,-11.33 3.05,-3.05 6.83,-4.58 11.33,-4.58 4.36,0 8.06,1.53 11.12,4.58 3.05,3.05 4.57,6.83 4.57,11.33 0,4.51 -1.52,8.29 -4.57,11.34 -3.06,3.05 -6.76,4.58 -11.12,4.58zm12.2 15.91l0 120.1 -24.85 0 0 -120.1 24.85 0z"/>
   <path id="_14" class="fil1" d="M3426.6 949.77c0,-12.35 2.51,-23.21 7.52,-32.59 5.02,-9.37 11.96,-16.6 20.82,-21.68 8.87,-5.09 19.04,-7.63 30.52,-7.63 14.53,0 26.55,3.45 36.07,10.35 9.52,6.9 15.95,16.75 19.29,29.54l-26.81 0c-2.18,-5.96 -5.67,-10.61 -10.46,-13.95 -4.8,-3.35 -10.83,-5.02 -18.09,-5.02 -10.18,0 -18.28,3.6 -24.31,10.79 -6.03,7.19 -9.04,17.26 -9.04,30.19 0,12.93 3.01,23.03 9.04,30.3 6.03,7.26 14.13,10.91 24.31,10.91 14.38,0 23.9,-6.32 28.55,-18.97l26.81 0c-3.49,12.21 -10.03,21.91 -19.62,29.1 -9.59,7.2 -21.5,10.79 -35.74,10.79 -11.48,0 -21.65,-2.58 -30.52,-7.74 -8.86,-5.15 -15.8,-12.42 -20.82,-21.79 -5.01,-9.38 -7.52,-20.24 -7.52,-32.59l0 -0.01z"/>
   <path id="_15" class="fil1" d="M3557.38 949.34c0,-12.06 2.51,-22.74 7.52,-32.04 5.02,-9.3 11.85,-16.53 20.49,-21.69 8.65,-5.15 18.2,-7.73 28.67,-7.73 9.44,0 17.69,1.85 24.74,5.56 7.04,3.7 12.68,8.31 16.89,13.84l0 -17.44 25.07 0 0 120.1 -25.07 0 0 -17.87c-4.21,5.66 -9.95,10.39 -17.22,14.16 -7.27,3.78 -15.55,5.67 -24.85,5.67 -10.32,0 -19.76,-2.65 -28.33,-7.95 -8.58,-5.31 -15.37,-12.72 -20.39,-22.24 -5.01,-9.52 -7.52,-20.3 -7.52,-32.37zm98.31 0.44c0,-8.28 -1.71,-15.48 -5.12,-21.58 -3.42,-6.1 -7.89,-10.75 -13.41,-13.95 -5.52,-3.2 -11.48,-4.79 -17.87,-4.79 -6.4,0 -12.35,1.56 -17.88,4.68 -5.52,3.13 -9.99,7.7 -13.4,13.73 -3.42,6.03 -5.12,13.19 -5.12,21.47 0,8.29 1.7,15.55 5.12,21.8 3.41,6.25 7.92,11.01 13.51,14.28 5.6,3.27 11.52,4.9 17.77,4.9 6.39,0 12.35,-1.6 17.87,-4.79 5.52,-3.2 9.99,-7.89 13.41,-14.06 3.41,-6.18 5.12,-13.41 5.12,-21.69z"/>
   <polygon id="_16" class="fil1" points="3738.3,848.64 3738.3,1009.94 3713.46,1009.94 3713.46,848.64 "/>
   <polygon id="_17" class="fil1" points="3934.25,858.46 3934.25,877.84 3893.94,877.84 3893.94,1009.94 3869.07,1009.94 3869.07,877.84 3828.54,877.84 3828.54,858.46 "/>
   <path id="_18" class="fil1" d="M3984.18 910.76c3.63,-7.26 8.46,-12.89 14.49,-16.89 6.03,-4 13.19,-5.99 21.47,-5.99l0 25.72 -6.32 0c-9.74,0 -17.11,2.47 -22.12,7.41 -5.02,4.94 -7.52,13.51 -7.52,25.72l0 63.21 -24.85 0 0 -120.1 24.85 0 0 20.92z"/>
   <path id="_19" class="fil1" d="M4034.74 949.34c0,-12.06 2.51,-22.74 7.52,-32.04 5.02,-9.3 11.85,-16.53 20.49,-21.69 8.65,-5.15 18.2,-7.73 28.67,-7.73 9.44,0 17.69,1.85 24.74,5.56 7.04,3.7 12.68,8.31 16.89,13.84l0 -17.44 25.07 0 0 120.1 -25.07 0 0 -17.87c-4.21,5.66 -9.95,10.39 -17.22,14.16 -7.27,3.78 -15.55,5.67 -24.85,5.67 -10.32,0 -19.76,-2.65 -28.33,-7.95 -8.58,-5.31 -15.37,-12.72 -20.39,-22.24 -5.01,-9.52 -7.52,-20.3 -7.52,-32.37zm98.3 0.44c0,-8.28 -1.71,-15.48 -5.12,-21.58 -3.42,-6.1 -7.89,-10.75 -13.41,-13.95 -5.52,-3.2 -11.48,-4.79 -17.87,-4.79 -6.4,0 -12.35,1.56 -17.88,4.68 -5.52,3.13 -9.99,7.7 -13.4,13.73 -3.42,6.03 -5.12,13.19 -5.12,21.47 0,8.29 1.7,15.55 5.12,21.8 3.41,6.25 7.92,11.01 13.51,14.28 5.6,3.27 11.52,4.9 17.77,4.9 6.39,0 12.35,-1.6 17.87,-4.79 5.52,-3.2 9.99,-7.89 13.41,-14.06 3.41,-6.18 5.12,-13.41 5.12,-21.69z"/>
   <path id="_20" class="fil1" d="M4182.51 949.34c0,-12.06 2.51,-22.74 7.52,-32.04 5.02,-9.3 11.85,-16.53 20.49,-21.69 8.65,-5.15 18.28,-7.73 28.89,-7.73 7.84,0 15.58,1.7 23.21,5.12 7.63,3.41 13.69,7.96 18.2,13.62l0 -57.98 25.07 0 0 161.3 -25.07 0 0 -18.09c-4.07,5.81 -9.7,10.61 -16.89,14.38 -7.2,3.78 -15.44,5.67 -24.74,5.67 -10.47,0 -20.02,-2.65 -28.67,-7.95 -8.64,-5.31 -15.47,-12.72 -20.49,-22.24 -5.01,-9.52 -7.52,-20.3 -7.52,-32.37zm98.31 0.44c0,-8.28 -1.71,-15.48 -5.12,-21.58 -3.42,-6.1 -7.89,-10.75 -13.41,-13.95 -5.52,-3.2 -11.48,-4.79 -17.87,-4.79 -6.4,0 -12.35,1.56 -17.88,4.68 -5.52,3.13 -9.99,7.7 -13.4,13.73 -3.42,6.03 -5.12,13.19 -5.12,21.47 0,8.29 1.7,15.55 5.12,21.8 3.41,6.25 7.92,11.01 13.51,14.28 5.6,3.27 11.52,4.9 17.77,4.9 6.39,0 12.35,-1.6 17.87,-4.79 5.52,-3.2 9.99,-7.89 13.41,-14.06 3.41,-6.18 5.12,-13.41 5.12,-21.69z"/>
   <path id="_21" class="fil1" d="M4351.23 873.92c-4.5,0 -8.28,-1.53 -11.33,-4.58 -3.06,-3.05 -4.58,-6.83 -4.58,-11.34 0,-4.5 1.52,-8.28 4.58,-11.33 3.05,-3.05 6.83,-4.58 11.33,-4.58 4.36,0 8.06,1.53 11.12,4.58 3.05,3.05 4.57,6.83 4.57,11.33 0,4.51 -1.52,8.29 -4.57,11.34 -3.06,3.05 -6.76,4.58 -11.12,4.58zm12.21 15.91l0 120.1 -24.85 0 0 -120.1 24.85 0z"/>
   <path id="_22" class="fil1" d="M4456.71 887.87c9.45,0 17.91,1.96 25.4,5.88 7.48,3.93 13.33,9.74 17.54,17.44 4.22,7.7 6.32,17 6.32,27.9l0 70.84 -24.63 0 0 -67.12c0,-10.76 -2.68,-19 -8.06,-24.74 -5.38,-5.74 -12.72,-8.6 -22.02,-8.6 -9.3,0 -16.67,2.86 -22.12,8.6 -5.45,5.74 -8.17,13.98 -8.17,24.74l0 67.12 -24.85 0 0 -120.1 24.85 0 0 13.73c4.07,-4.94 9.26,-8.79 15.58,-11.55 6.32,-2.76 13.04,-4.14 20.16,-4.14z"/>
   <path id="_23" class="fil1" d="M4585.97 887.87c9.3,0 17.54,1.85 24.74,5.56 7.19,3.7 12.82,8.31 16.89,13.84l0 -17.44 25.07 0 0 122.06c0,11.05 -2.33,20.89 -6.98,29.54 -4.65,8.64 -11.37,15.44 -20.16,20.38 -8.79,4.94 -19.29,7.41 -31.5,7.41 -16.27,0 -29.79,-3.82 -40.54,-11.45 -10.75,-7.62 -16.86,-17.98 -18.31,-31.06l24.63 0c1.89,6.25 5.92,11.3 12.1,15.15 6.17,3.85 13.55,5.78 22.12,5.78 10.03,0 18.13,-3.05 24.31,-9.16 6.17,-6.1 9.26,-14.96 9.26,-26.59l0 -20.05c-4.21,5.67 -9.92,10.42 -17.11,14.28 -7.19,3.85 -15.37,5.77 -24.52,5.77 -10.47,0 -20.02,-2.65 -28.67,-7.95 -8.64,-5.31 -15.47,-12.72 -20.49,-22.24 -5.01,-9.52 -7.52,-20.3 -7.52,-32.37 0,-12.06 2.51,-22.74 7.52,-32.04 5.02,-9.3 11.85,-16.53 20.49,-21.69 8.65,-5.15 18.2,-7.73 28.67,-7.73zm41.63 61.9c0,-8.28 -1.71,-15.48 -5.12,-21.58 -3.42,-6.1 -7.89,-10.75 -13.41,-13.95 -5.52,-3.2 -11.48,-4.79 -17.87,-4.79 -6.4,0 -12.35,1.56 -17.88,4.68 -5.52,3.13 -9.99,7.7 -13.4,13.73 -3.42,6.03 -5.12,13.19 -5.12,21.47 0,8.29 1.7,15.55 5.12,21.8 3.41,6.25 7.92,11.01 13.51,14.28 5.6,3.27 11.52,4.9 17.77,4.9 6.39,0 12.35,-1.6 17.87,-4.79 5.52,-3.2 9.99,-7.89 13.41,-14.06 3.41,-6.18 5.12,-13.41 5.12,-21.69z"/>
   <polygon id="_24" class="fil1" points="4871.73,858.46 4871.73,1009.94 4846.87,1009.94 4846.87,943.01 4775.6,943.01 4775.6,1009.94 4750.76,1009.94 4750.76,858.46 4775.6,858.46 4775.6,923.85 4846.87,923.85 4846.87,858.46 "/>
   <path id="_25" class="fil1" d="M5013.18 889.84l0 120.1 -24.84 0 0 -14.17c-3.93,4.94 -9.05,8.83 -15.37,11.66 -6.32,2.84 -13.04,4.25 -20.16,4.25 -9.45,0 -17.91,-1.96 -25.4,-5.88 -7.48,-3.92 -13.37,-9.74 -17.65,-17.44 -4.29,-7.7 -6.43,-17 -6.43,-27.9l0 -70.62 24.63 0 0 66.92c0,10.75 2.69,19 8.06,24.73 5.38,5.74 12.72,8.6 22.02,8.6 9.3,0 16.67,-2.86 22.12,-8.6 5.45,-5.73 8.18,-13.98 8.18,-24.73l0 -66.92 24.84 0z"/>
   <path id="_26" class="fil1" d="M5070.74 907.7c4.21,-5.81 9.99,-10.57 17.32,-14.27 7.34,-3.71 15.52,-5.56 24.53,-5.56 10.6,0 20.2,2.54 28.77,7.63 8.57,5.08 15.33,12.31 20.27,21.68 4.94,9.38 7.41,20.09 7.41,32.15 0,12.07 -2.47,22.85 -7.41,32.37 -4.94,9.52 -11.73,16.93 -20.38,22.24 -8.65,5.3 -18.2,7.95 -28.66,7.95 -9.3,0 -17.55,-1.81 -24.74,-5.45 -7.2,-3.63 -12.9,-8.28 -17.11,-13.95l0 17.44 -24.85 0 0 -161.3 24.85 0 0 59.07zm73.02 41.64c0,-8.28 -1.71,-15.44 -5.13,-21.47 -3.41,-6.03 -7.92,-10.6 -13.51,-13.73 -5.59,-3.12 -11.59,-4.68 -17.98,-4.68 -6.25,0 -12.17,1.59 -17.77,4.79 -5.59,3.2 -10.1,7.85 -13.51,13.95 -3.42,6.1 -5.12,13.3 -5.12,21.58 0,8.28 1.7,15.51 5.12,21.69 3.41,6.17 7.92,10.86 13.51,14.06 5.6,3.19 11.52,4.79 17.77,4.79 6.39,0 12.39,-1.63 17.98,-4.9 5.59,-3.27 10.1,-8.03 13.51,-14.28 3.42,-6.25 5.13,-13.51 5.13,-21.8z"/>
   <path class="fil1" d="M1899.59 364.39c0,29.19 -6.76,55.65 -20.26,79.4 -13.51,23.74 -33.44,42.58 -59.79,56.52 -26.36,13.94 -58.27,20.91 -95.73,20.91l-57.51 0 0 147.03 -145.07 0 0 -462.65 202.58 0c56.63,0 100.08,14.38 130.36,43.13 30.28,28.75 45.42,67.31 45.42,115.66zm-192.12 42.48c30.06,0 45.09,-14.16 45.09,-42.48 0,-28.32 -15.03,-42.47 -45.09,-42.47l-41.17 0 0 84.95 41.17 0z"/>
   <path id="_1" class="fil1" d="M2203.45 297.08c42.26,0 75.26,14.16 99,42.48 23.74,28.32 35.61,66.65 35.61,115.01l0 213.68 -144.41 0 0 -195.38c0,-17.43 -4.69,-31.26 -14.05,-41.5 -9.37,-10.24 -21.89,-15.36 -37.58,-15.36 -16.11,0 -28.75,5.12 -37.9,15.36 -9.14,10.24 -13.72,24.07 -13.72,41.5l0 195.38 -145.07 0 0 -483.56 145.07 0 0 171.21c11.33,-17.43 26.47,-31.59 45.42,-42.48 18.95,-10.89 41.49,-16.34 67.63,-16.34z"/>
   <path id="_2" class="fil1" d="M2381.2 483.97c0,-38.77 6.64,-72.42 19.93,-100.96 13.29,-28.53 31.47,-50.31 54.56,-65.34 23.09,-15.03 49.01,-22.55 77.77,-22.55 23.96,0 44.65,4.91 62.07,14.71 17.43,9.8 30.72,23.2 39.87,40.18l0 -50.31 144.41 0 0 368.55 -144.41 0 0 -50.32c-9.15,16.99 -22.44,30.39 -39.87,40.19 -17.42,9.8 -38.11,14.7 -62.07,14.7 -28.76,0 -54.68,-7.51 -77.77,-22.54 -23.09,-15.03 -41.27,-36.81 -54.56,-65.35 -13.29,-28.53 -19.93,-62.18 -19.93,-100.96zm254.2 0c0,-19.6 -5.01,-34.85 -15.03,-45.74 -10.02,-10.89 -22.88,-16.33 -38.56,-16.33 -15.68,0 -28.53,5.44 -38.55,16.33 -10.02,10.89 -15.03,26.14 -15.03,45.74 0,19.61 5.01,34.86 15.03,45.75 10.02,10.89 22.87,16.33 38.55,16.33 15.68,0 28.54,-5.44 38.56,-16.33 10.02,-10.89 15.03,-26.14 15.03,-45.75z"/>
   <path id="_3" class="fil1" d="M2990.21 367.66c14.81,-21.35 32.89,-38.45 54.24,-51.3 21.34,-12.85 43.56,-19.28 66.65,-19.28l0 154.87 -41.17 0c-27.44,0 -47.59,4.8 -60.44,14.38 -12.85,9.58 -19.28,26.57 -19.28,50.97l0 150.95 -145.07 0 0 -368.55 145.07 0 0 67.96z"/>
   <path id="_4" class="fil1" d="M3642.38 297.08c47.05,0 83.53,14.16 109.45,42.48 25.92,28.32 38.88,66.65 38.88,115.01l0 213.68 -144.41 0 0 -195.38c0,-15.69 -4.68,-27.99 -14.05,-36.93 -9.37,-8.93 -21.89,-13.39 -37.57,-13.39 -16.12,0 -28.76,4.46 -37.9,13.39 -9.15,8.94 -13.73,21.24 -13.73,36.93l0 195.38 -144.41 0 0 -195.38c0,-15.69 -4.69,-27.99 -14.05,-36.93 -9.37,-8.93 -21.89,-13.39 -37.58,-13.39 -16.11,0 -28.75,4.46 -37.9,13.39 -9.14,8.94 -13.72,21.24 -13.72,36.93l0 195.38 -145.07 0 0 -368.55 145.07 0 0 49.66c10.46,-15.68 24.72,-28.32 42.8,-37.9 18.08,-9.58 39.32,-14.38 63.72,-14.38 26.57,0 50.09,5.78 70.57,17.32 20.47,11.55 36.81,27.77 49.01,48.68 13.5,-19.16 30.71,-34.96 51.62,-47.37 20.91,-12.42 44,-18.63 69.27,-18.63z"/>
   <polygon id="_5" class="fil1" points="4297.14,668.26 4152.07,668.26 3998.5,435.62 3998.5,668.26 3853.44,668.26 3853.44,205.6 3998.5,205.6 4152.07,442.15 4152.07,205.6 4297.14,205.6 "/>
   <path id="_6" class="fil1" d="M4719.27 480.71c0,10.02 -0.65,19.6 -1.96,28.75l-233.28 0c2.17,31.8 15.46,47.7 39.86,47.7 15.68,0 27.01,-7.19 33.98,-21.56l153.56 0c-5.23,26.14 -16.23,49.55 -33,70.24 -16.77,20.7 -37.9,37.03 -63.38,49.01 -25.49,11.98 -53.48,17.97 -83.97,17.97 -36.6,0 -69.16,-7.62 -97.7,-22.87 -28.53,-15.24 -50.75,-37.14 -66.65,-65.67 -15.9,-28.53 -23.85,-61.97 -23.85,-100.31 0,-38.33 7.95,-71.77 23.85,-100.3 15.9,-28.54 38.12,-50.43 66.65,-65.67 28.54,-15.25 61.1,-22.88 97.7,-22.88 36.59,0 69.15,7.52 97.69,22.55 28.53,15.03 50.75,36.48 66.65,64.36 15.9,27.89 23.85,60.78 23.85,98.68zm-147.03 -30.73c0,-13.94 -3.92,-24.28 -11.76,-31.03 -7.84,-6.76 -17.64,-10.13 -29.4,-10.13 -26.58,0 -41.83,13.72 -45.75,41.16l86.91 0z"/>
   <polygon id="_7" class="fil1" points="5006.8,668.26 4944.72,585.26 4898.32,668.26 4738.88,668.26 4862.39,474.18 4732.35,299.7 4894.4,299.7 4956.48,383.34 5003.54,299.7 5162.97,299.7 5035.55,489.2 5168.85,668.26 "/>
  </g>
 </g>
</svg>
